<svg xmlns="http://www.w3.org/2000/svg" xmlns:xlink="http://www.w3.org/1999/xlink" viewBox="0 0 629 684"><defs><style>.cls-1{fill:none;stroke:#ffb6a5;stroke-miterlimit:10;stroke-width:25px;}.cls-2{fill:#ec5074;}</style></defs><g id="Layer_2" data-name="Layer 2"><g id="Layer_2-2" data-name="Layer 2"><path class="cls-1" d="M195,236.55a288.37,288.37,0,0,1,0-95c5.61-33.32,10.45-62,33.92-88.2,6.77-7.55,35.05-38.1,81.41-40.7,48.39-2.72,81,27,88.19,33.92,25.7,24.82,32,54,40.71,95A358.1,358.1,0,0,1,446,243.34"/><polygon class="cls-1" points="77.85 176.44 547.03 176.44 614.67 671.5 14.21 671.5 77.85 176.44"/><image width="3507" height="1311" transform="translate(127.03 354.5) scale(0.11)" xlink:href="../../../../My%20Files/Company/lavish/T%20shirt/Logonew.png"/><circle class="cls-2" cx="196.21" cy="243.49" r="29.67"/><circle class="cls-2" cx="443.3" cy="248.09" r="29.67"/></g></g></svg>