<svg xmlns="http://www.w3.org/2000/svg" viewBox="0 0 159.95 209.18"><defs><style>.cls-1{fill:none;stroke:#9e6756;stroke-miterlimit:10;stroke-width:8px;}</style></defs><g id="Layer_2" data-name="Layer 2"><g id="Layer_2-2" data-name="Layer 2"><circle class="cls-1" cx="79.96" cy="54" r="50"/><path class="cls-1" d="M6.46,178.5c2.47-7.95,8.21-26.45,27-41a81,81,0,0,1,42-16,70.78,70.78,0,0,1,32,4c17.89,6.8,27.67,19.31,32,25,8,10.47,10.78,19.58,14,30,3.33,10.77,3,15,1,18-3.48,5.32-11.44,5.82-15,6-16.86.84-62.23,1-123,0-2.91-.14-7.18-.87-10-4C5.34,199.26,1.53,194.38,6.46,178.5Z"/></g></g></svg>